<?xml version="1.0" encoding="UTF-8" standalone="no"?>
<svg
   version="1.1"
   id="Layer_1"
   x="0px"
   y="0px"
   viewBox="0 0 1636.2929 1636.293"
   enable-background="new 0 0 1494.358 1636.293"
   xml:space="preserve"
   sodipodi:docname="favicon.svg"
   width="1636.293"
   height="1636.293"
   inkscape:export-filename="favicon.png"
   inkscape:export-xdpi="7.5096579"
   inkscape:export-ydpi="7.5096579"
   inkscape:version="1.3.2 (091e20ef0f, 2023-11-25, custom)"
   xmlns:inkscape="http://www.inkscape.org/namespaces/inkscape"
   xmlns:sodipodi="http://sodipodi.sourceforge.net/DTD/sodipodi-0.dtd"
   xmlns="http://www.w3.org/2000/svg"
   xmlns:svg="http://www.w3.org/2000/svg"><defs
   id="defs2" /><sodipodi:namedview
   id="namedview2"
   pagecolor="#505050"
   bordercolor="#eeeeee"
   borderopacity="1"
   inkscape:showpageshadow="0"
   inkscape:pageopacity="0"
   inkscape:pagecheckerboard="0"
   inkscape:deskcolor="#d1d1d1"
   inkscape:zoom="0.73580955"
   inkscape:cx="747.47602"
   inkscape:cy="818.14648"
   inkscape:window-width="3440"
   inkscape:window-height="1379"
   inkscape:window-x="0"
   inkscape:window-y="0"
   inkscape:window-maximized="1"
   inkscape:current-layer="Layer_1" />
<g
   id="g2"
   transform="translate(70.967484,-0.01771801)">
	<path
   fill="#020202"
   d="m 790.045,49.845 c 11.432,0 12.395,1.617 5.739,9.638 -8.085,9.741 -19.477,7.667 -19.477,-3.547 0,-3.35 6.182,-6.091 13.738,-6.091 z"
   id="path1" />
	<path
   fill="#020202"
   d="m 16.595,1305.53 19.009,-0.29 c 43.589,-0.65 109.767,-40.099 128.706,-76.728 17.939,-34.689 22.989,-118.967 22.989,-383.541 0,-209.485 1.71,-264.884 8.09,-262.754 6.27,2.09 8.53,66.028 10.01,283.713 2.488,364.445 -1.397,343.348 -51.799,400.76 h 23.749 c 44.019,0 95.097,-38.659 119.317,-90.298 l 16.849,-35.919 c 2.993,-388.361 3.131,-560.994 11.87,-558.076 8.784,2.933 7.55,184.406 7.55,558.076 -8.92,16.897 -32.279,63.619 -44.799,74.018 -16.67,13.84 -10.04,77.578 11.08,106.467 7.74,10.57 10.58,8.42 32.489,-24.579 13.21,-19.89 26.169,-36.119 28.799,-36.059 28.231,0.586 22.708,63.275 32.009,79.378 1.6,2.78 18.94,-9.6 38.529,-27.509 33.779,-30.869 47.529,-38.829 47.529,-27.519 0,2.77 -4.28,11.13 -9.5,18.589 -8.95,12.77 -7.09,15.88 31.799,53.229 22.719,21.81 44.399,39.659 48.189,39.659 11.99,0 24.689,-27.379 39.799,-85.768 17.219,-66.568 29.049,-75.178 22.219,-16.18 -17.846,154.219 -71.313,92.496 -1.29,166.276 22.169,23.359 42.169,43.329 44.449,44.389 7.14,3.31 24.619,-56.899 29.039,-100.088 2.33,-22.75 7.15,-43.159 10.71,-45.359 10.53,-6.51 1.6,120.407 -10.47,148.836 l -10.5,24.739 c 12.854,17.311 46.821,64.399 62.928,78.768 15.363,13.696 12.59,12.406 84.198,-75.768 l -9.67,-26.239 c -11.49,-31.179 -19.899,-156.396 -10.1,-150.336 3.56,2.2 8.38,22.609 10.71,45.359 4.42,43.189 21.899,103.397 29.039,100.088 2.28,-1.06 22.279,-21.029 44.449,-44.389 39.149,-41.239 40.009,-42.889 29.909,-57.299 -36.694,-52.406 -47.321,-240.974 -8.97,-92.798 15.1,58.389 27.809,85.768 39.789,85.768 3.79,0 25.469,-17.849 48.189,-39.659 38.889,-37.349 40.749,-40.459 31.799,-53.229 -5.22,-7.46 -9.5,-15.82 -9.5,-18.589 0,-11.31 13.75,-3.35 47.529,27.519 19.589,17.91 36.929,30.289 38.529,27.509 9.146,-15.833 3.821,-78.793 32.009,-79.378 2.63,-0.05 15.59,16.169 28.799,36.059 21.909,32.999 24.749,35.149 32.489,24.579 21.119,-28.889 27.759,-92.628 11.09,-106.467 -12.439,-10.314 -35.477,-56.342 -44.809,-74.018 0,-374.663 -1.218,-555.145 7.56,-558.076 8.725,-2.918 8.885,170.19 11.86,558.076 l 16.85,35.919 c 24.349,51.919 75.298,90.298 119.857,90.298 h 24.289 c -50.966,-53.207 -54.027,-32.488 -54.119,-396.44 -0.07,-253.184 1.14,-289.653 9.63,-289.653 23.952,0 -9.294,566.692 32.699,647.914 18.94,36.629 85.118,76.078 128.706,76.728 l 19.01,0.29 c -66.079,-68.971 -55.153,-2.837 -62.077,-731.538 -0.364,-38.332 -0.651,-225.966 -7.492,-261.605 -9.589,-49.951 -67.406,-51.99 -107.738,-51.472 -91.239,1.172 -96.104,22.542 -124.004,80.198 H 912.15 c 7.539,10.406 38.919,51.496 38.919,62.458 0,9.903 56.7,8.74 296.082,8.74 l 4.15,-25.979 c 10.3,-64.388 80.278,-76.768 109.257,-19.319 9.23,18.3 11.09,36.209 9.71,93.318 -1.21,49.509 -4.14,71.468 -9.81,73.348 -6.15,2.05 -8.1,-14.87 -8.12,-70.668 -0.02,-61.709 -2.06,-76.698 -12.85,-94.388 -24.439,-40.089 -64.688,-22.489 -69.778,30.519 l -3.13,32.589 H 960.159 c -8.481,75.932 -17.413,141.045 -18.329,264.843 -0.501,67.968 16.25,208.108 52.185,292.213 3.271,7.655 23.098,51.362 31.568,51.364 3.888,0 2.076,-27.435 7.227,-122.979 8.492,-157.531 -1.333,-137.12 3.778,-280.956 2.29,-64.448 14.09,-69.448 16.7,-7.07 l 1.9,45.309 c -0.477,50.738 -2.137,101.483 -1.43,152.226 3.993,284.493 1.93,290.691 18.399,318.562 13.88,23.479 13.94,24.379 2.05,30.749 -6.74,3.61 -16.089,6.49 -20.769,6.41 -8.84,-0.15 -79.618,-102.427 -74.458,-107.597 1.61,-1.61 13.55,3.04 26.539,10.34 30.989,17.4 41.709,16.849 25.059,-1.3 -57.182,-62.355 -78.688,-148.341 -86.356,-174.123 -15.149,-50.936 -22.769,-91.28 -24.311,-144.411 -2.492,-85.827 -6.126,-76.721 3.642,-180.618 16.831,-179.01 8.956,-174.783 -24.012,-226.997 -34.298,-54.315 -58.507,-118.435 -58.507,-154.959 0,-25.558 5.007,-25.461 74.173,-67.765 8.257,12.587 14.004,21.348 22.263,33.938 l 7.083,-18.629 c 14.151,-37.219 15.224,-71.587 2.828,-90.507 -10.846,-16.553 -14.136,-17.6 -46.792,-14.892 -30.396,2.521 -37.167,0.872 -50.282,-12.243 -18.021,-18.022 -36.849,-18.926 -89.755,-4.311 -61.974,17.12 -63.474,18.69 -107.708,112.763 -5.689,12.098 -29.769,114.627 -35.198,149.863 -2.057,13.352 -15.258,46.017 -29.336,72.588 -23.984,45.269 -25.596,51.756 -25.596,103.027 0,96.399 12.921,191.849 7.404,288.656 -4.228,44.742 -11.033,141.946 -46.873,233.805 -24.816,63.605 -108.587,137.772 -34.402,96.114 12.99,-7.3 24.929,-11.95 26.539,-10.34 5.16,5.17 -65.618,107.447 -74.458,107.597 -4.68,0.08 -14.03,-2.8 -20.769,-6.41 -11.89,-6.37 -11.83,-7.27 2.05,-30.749 16.483,-27.889 14.395,-32.532 18.369,-346.522 0,0 -1.38,-125.317 0.48,-169.576 2.25,-53.299 13.46,-60.159 18.1,-11.08 7.747,82.001 -1.435,164.649 0.516,246.836 1.406,59.234 1.809,118.508 2.714,177.753 0,0 17.629,-20.969 17.629,-20.969 9.7,-11.53 20.799,-33.209 24.679,-48.169 42.086,-162.798 44.507,-186.469 44.747,-261.054 0.316,-97.71 3.151,-139.63 -5.638,-187.125 -8.184,-44.224 -6.98,-72.205 -6.98,-93.608 H 227.819 l -3.31,-29.389 c -5.62,-49.859 -39.939,-70.948 -66.948,-41.149 -10.44,11.51 -12.66,25.909 -14.48,93.848 -1.71,63.958 -4.01,80.248 -11.32,80.248 -7.39,0 -9.18,-14.38 -9.18,-73.648 0,-86.138 8.58,-114.467 38.409,-126.827 37.869,-15.69 67.148,2.35 79.638,49.039 l 7.61,28.459 H 536.49 c 18.75,-37.111 19.859,-40.549 47.899,-71.198 1.001,0 -222.267,0.669 -249.569,-1.243 -5.269,-0.369 -14.19,0.153 -18.897,-2.836 -6.735,-4.276 -8.322,-16.041 -12.043,-23.219 C 268.242,245.069 158.161,241.91 111.022,274.222 88.033,289.98 84.095,312.69 83.362,339.653 78.971,501.089 78.818,537.68 77.143,761.829 73.181,1290.809 76.435,1243.071 16.595,1305.53 Z M 895.823,94.056 c -10.555,1.176 -29.024,7.848 -41.042,14.826 -61.911,35.948 4.752,-35.179 33.125,-43.887 32.562,-9.993 50.216,-0.981 50.216,25.634 0,27.826 -6.539,34.358 -15.831,15.812 C 916.734,95.35 910.478,92.422 895.823,94.056 Z m 247.801,1094.127 c -15.13,3.94 -31.879,10.06 -37.219,13.61 -13.99,9.29 -28.069,8.12 -42.449,-3.54 -6.91,-5.61 -9.09,-8.45 -4.84,-6.32 4.25,2.13 23.769,-6.39 43.379,-18.94 40.569,-25.949 47.619,-27.309 59.628,-11.48 12.82,16.89 11.45,18.86 -18.499,26.67 z m 24.349,41.939 c 13.04,-24.209 17.39,-26.019 28.999,-12.03 5.42,6.53 6.56,19.339 3.51,39.659 -7.39,49.269 -10.05,51.299 -27.919,21.34 -16.089,-26.99 -16.14,-27.53 -4.59,-48.969 z m -74.508,-8.95 c 0,-5.42 45.839,-19.21 63.858,-19.21 15.83,0 16.969,5 4.8,21.04 -4.98,6.56 -17.16,11.33 -28.919,11.33 -11.83,0 -20.409,3.38 -20.529,8.09 -0.2,8.009 -19.21,-13.02 -19.21,-21.25 z m -31.559,9.19 c 13.21,-11.96 13.65,-11.86 27.729,5.8 12.79,16.04 13.6,21.029 7.6,46.899 -3.69,15.92 -8.39,28.939 -10.45,28.939 -2.05,0 -13.33,-9.9 -25.059,-22.009 -23.389,-24.13 -23.349,-38.33 0.18,-59.629 z m -132.416,36.329 c 5.93,0 8.79,-2 6.35,-4.44 -6.128,-6.128 66.145,-32.443 77.948,-42.019 7.21,-5.86 -21.509,-53.619 -79.708,-132.497 -13.26,-17.979 -13.88,-21.349 -5.22,-28.529 11.98,-9.95 9.62,-12.52 66.548,72.328 25.369,37.799 50.249,72.148 55.289,76.328 7.72,6.41 6.46,10.43 -8.02,25.519 -29.469,30.739 -51.639,41.359 -77.728,37.249 -17.3,-2.74 -19.95,-2.18 -9.93,2.1 23.209,9.89 25.039,27.649 4.54,44.059 -10.01,8.01 -19.929,14.58 -22.029,14.6 -2.11,0.02 -7.21,-11.23 -11.33,-24.989 -10,-33.4 -9.48,-39.709 3.29,-39.709 z M 844.082,930.919 c 17.928,17.069 9.206,81.78 23.699,200.255 30.337,-23.478 17.335,-13.415 47.689,-36.909 63.653,96.706 81.058,120.647 67.458,120.647 -10.823,0 -31.338,-28.532 -37.409,-37.479 -37.899,-55.809 -40.119,-56.829 -65.788,-30.339 -12,12.38 -23.749,22.51 -26.109,22.51 -4.32,0 -9.46,-55.839 -16.66,-181.236 -3.67,-63.879 -3.24,-67.329 7.12,-57.449 z m -15.95,-782.367 c 0.065,-7.166 39.981,-32.654 54.973,-35.103 19.394,-3.168 15.65,12.491 -6.473,27.073 -19.141,12.617 -48.586,17.492 -48.5,8.03 z M 732.643,58.315 C 753.28,39.639 804.829,27.916 823.165,37.729 l 14.152,7.574 c -9.429,3.488 -26.161,8.145 -30.78,20.182 -5.135,13.382 -34.393,13.228 -41.919,-0.22 v 0 c -5.359,-9.575 -7.34,-9.5 -23.178,0.877 -22.103,14.482 -27.824,9.392 -8.797,-7.827 z M 554.141,1178.976 c -6.081,8.961 -26.589,37.479 -37.409,37.479 -13.581,0 3.733,-23.831 67.458,-120.647 30.35,23.491 17.34,13.421 47.689,36.909 14.516,-118.648 5.77,-183.185 23.7,-200.255 10.36,-9.88 10.789,-6.43 7.12,57.449 -7.2,125.397 -12.34,181.236 -16.659,181.236 -2.36,0 -14.11,-10.13 -26.109,-22.509 -25.671,-26.491 -27.891,-25.471 -65.79,30.338 z m -102.458,54.405 c -14.74,-15.36 -15.84,-19.029 -7.74,-25.749 13.942,-11.578 105.584,-154.536 113.567,-154.536 43.168,0 -92.978,154.116 -76.838,167.216 11.607,9.441 83.963,35.809 77.858,41.939 -2.45,2.44 0.41,4.44 6.34,4.44 12.77,0 13.3,6.31 3.29,39.709 -8.74,29.169 -13.17,30.389 -35.459,9.72 -14.6,-13.54 -15.52,-16.88 -7.99,-28.929 4.68,-7.5 12.96,-14.96 18.399,-16.599 5.44,-1.63 -0.72,-1.45 -13.7,0.4 -26.028,3.708 -48.568,-7.191 -77.727,-37.611 z m -46.959,2.78 c 14.09,-17.66 14.52,-17.76 27.729,-5.8 23.529,21.299 23.569,35.499 0.18,59.628 -11.73,12.11 -23.009,22.009 -25.059,22.009 -2.05,0 -6.75,-13.02 -10.45,-28.939 -5.999,-25.868 -5.19,-30.858 7.6,-46.898 z m -78.708,-7.319 c 11.93,20.199 11.9,20.679 -3.21,48.329 -17.3,31.659 -22.469,28.359 -28.909,-18.45 -2.87,-20.869 -1.68,-34.409 3.6,-40.769 11.23,-13.52 14.93,-12.11 28.519,10.89 z m 49.639,-19.44 c 28.419,9.6 27.599,8.43 18.209,25.969 -4.91,9.18 -9.14,11.94 -10.77,7.03 -1.498,-4.493 -11.723,-8.07 -22.479,-8.07 -17.719,0 -36.609,-13.97 -37.179,-27.509 -0.31,-7.23 27.22,-5.87 52.219,2.58 z m 16.21,-36.409 c 19.609,12.55 39.139,21.07 43.379,18.94 4.25,-2.13 1.9,0.88 -5.22,6.7 -13.79,11.25 -20.429,10.6 -71.198,-6.95 -40.199,-13.9 -38.089,-11.8 -28.019,-27.919 11.539,-18.48 19.659,-17.25 61.058,9.229 z"
   id="path2" />
</g>
</svg>
